#!OML:ASF F:\VICON\USERDATA\INSTALL\rory3\rory3.ASF
:FULLY-SPECIFIED
:DEGREES
194
root 0.6361218126525969 17.78922946868806 36.2150513341125 1.0849454787127828 -0.7324548112714798 -0.629319510168614
lfemur -23.613137384207086 2.93869857239104 -23.039014926627914
ltibia 49.386948055613594
lfoot 2.7449695060714436 -8.464422080982224
ltoes -7.674597056310457
rfemur -17.892934939935188 3.449504457736377 27.796710849725592
rtibia 65.04730224695693
rfoot 4.11756908188491 -5.316317658531873
rtoes 2.783268775011542
lowerback 14.564125660740382 0.9337252985281055 1.8871138118535182
upperback -1.3513219884352285 2.166556645570831 1.3939422521181852
thorax -9.28134964743604 0.9691789013698879 0.06504242031344226
lowerneck -19.851401683420672 -4.081502312305556 -2.490655760135432
upperneck 12.636063929807952 -5.6189573998553035 5.470544237819832
head 7.384023311825873 -2.4559075364745997 1.4855654314997357
lclavicle 2.9801515526439752e-15 1.1900897868484632e-16
lhumerus -49.86295004460461 -11.352818399065704 95.43190805395797
lradius 111.76560336076703
lwrist 34.41804701114744
lhand -20.885080960763954 2.630886164612067
lfingers 7.125019999999999
lthumb 5.497235167850733 32.76521353777164
rclavicle 2.9801381671163078e-15 1.1900166246856291e-16
rhumerus -46.92450822832541 12.142003065797732 -97.28614260648447
rradius 110.89955330415822
rwrist -15.344360962716905
rhand -15.702737675507619 38.45616786873494
rfingers 7.125019999999999
rthumb 10.596190517578174 8.19332954127092
195
root 0.6316630981483211 17.766406458850952 35.88517282152345 1.0222268788601312 -0.8090591199272189 -0.6480712432355105
lfemur -19.927837701035703 3.747994353531311 -21.81209664590872
ltibia 48.16257586030521
lfoot 1.8232212715659142 -8.965262401629179
ltoes -7.184610251983683
rfemur -19.42399260315194 3.3690591993407546 27.40886884746817
rtibia 62.98020563347367
rfoot 3.750804737099515 -5.330591902613171
rtoes 1.980556242965475
lowerback 14.503570630226658 0.8838094498031469 1.8042933910363546
upperback -1.2940005800028453 2.0829200252102265 1.3864594398859313
thorax -9.173530554480436 1.067645917135113 0.49954882034345627
lowerneck -19.858264763582195 -4.001912803298044 -2.4732453423694207
upperneck 12.624884250766192 -5.589229339960381 5.466842730027877
head 7.3542947421067675 -2.501513084289594 1.4589059269176787
lclavicle 2.9801515526439752e-15 1.1900897868484632e-16
lhumerus -49.10914923247789 -11.416936567543635 95.59586603917631
lradius 112.16277778076957
lwrist 34.37811403659552
lhand -20.949684765465772 2.5559067066883876
lfingers 7.125019999999999
lthumb 5.513177544749176 32.78582988666557
rclavicle 2.9801381671163078e-15 1.1900166246856291e-16
rhumerus -47.054721407293464 12.214993411879894 -97.35214738580177
rradius 110.83292862922593
rwrist -15.321441645043302
rhand -15.70943272474047 38.4605199759043
rfingers 7.125019999999999
rthumb 10.61501755028683 8.225189775509381
196
root 0.6275943412184599 17.749204908765858 35.62143425781396 1.0018181887720918 -0.8602681811253464 -0.67119572041876
lfemur -21.04080168266354 3.372478907375891 -22.788241966725746
ltibia 47.51120287172721
lfoot 1.9548260653709713 -9.28207869071865
ltoes -6.666898842671691
rfemur -19.985248520017887 3.730034238625347 27.476621594109968
rtibia 61.41283959459339
rfoot 4.369939094953599 -4.919156763317325
rtoes 0.6835528331132783
lowerback 14.467166964112476 0.8546150729209454 1.7285819528678386
upperback -1.2287879851814045 1.9934689032442787 1.3646942692503994
thorax -9.254038325875072 0.9555104423729438 0.4270349402541572
lowerneck -19.88604214241483 -3.947865583883516 -2.468519308211762
upperneck 12.612832231440317 -5.578596823213105 5.419430071673295
head 7.38191546270082 -2.4589590730029918 1.4816727038921718
lclavicle 2.9801515526439752e-15 1.1900897868484632e-16
lhumerus -47.80918582237237 -11.594898950789565 95.89301167673369
lradius 111.6597073847555
lwrist 34.45625839084086
lhand -20.94329788102823 2.6235736247020087
lfingers 7.125019999999999
lthumb 5.559811124470631 32.77092432436172
rclavicle 2.9801381671163078e-15 1.1900166246856291e-16
rhumerus -47.290294927840336 12.20898195706304 -97.37933384313054
rradius 110.61434441047196
rwrist -15.340838993915645
rhand -15.694734893008897 38.49852139698594
rfingers 7.125019999999999
rthumb 10.636999486591787 8.284468374648963
197
root 0.6230298884928621 17.716596730452647 35.14162198697691 0.9689605452306957 -0.9257168061225776 -0.709668492351144
lfemur -20.749329366352264 3.199777956477652 -23.081863501964328
ltibia 47.790300760480335
lfoot -0.2420688142536105 -9.780354180231217
ltoes -6.234891659706029
rfemur -22.186473608044537 3.3799200777233485 26.928055074074297
rtibia 59.5830117365785
rfoot 3.7881935904200628 -4.7691028261248665
rtoes -0.4041421618515397
lowerback 14.520953015443514 0.8874024653852584 1.7934797729201692
upperback -1.2106081730711407 1.8160227545257575 1.3016393141981422
thorax -9.218864528271073 0.9801719288711058 0.5789003082686358
lowerneck -19.9327689350321 -3.8797622580386775 -2.454612798759987
upperneck 12.638761715797663 -5.5746143755599205 5.386659071388624
head 7.38348288653381 -2.4503151967072903 1.4659887291206006
lclavicle 2.9801515526439752e-15 1.1900897868484632e-16
lhumerus -46.935942666473935 -12.084045928898282 95.88892385174636
lradius 112.31299657748747
lwrist 34.2079409409414
lhand -20.91324684140594 2.676618229715407
lfingers 7.125019999999999
lthumb 5.547463230790767 32.65296348005952
rclavicle 2.9801381671163078e-15 1.1900166246856291e-16
rhumerus -47.700569578762206 12.115323931986746 -97.38568718177115
rradius 110.38168137689263
rwrist -15.307041191207276
rhand -15.689792470488943 38.49831016317073
rfingers 7.125019999999999
rthumb 10.66815982680096 8.349197390849092
